{
	"asset":{
		"generator":"Khronos glTF Blender I/O v3.6.27",
		"version":"2.0"
	},
	"scene":0,
	"scenes":[
		{
			"name":"Scene",
			"nodes":[
				0
			]
		}
	],
	"nodes":[
		{
			"mesh":0,
			"name":"Box033_Chrome_0.001",
			"rotation":[
				-0.48897236585617065,
				0.5804592967033386,
				-0.5023188591003418,
				0.4143053889274597
			],
			"translation":[
				90.47872161865234,
				0.1753692626953125,
				0.39383697509765625
			]
		}
	],
	"materials":[
		{
			"doubleSided":true,
			"name":"Chrome",
			"pbrMetallicRoughness":{
				"roughnessFactor":0.08075229823589325
			}
		}
	],
	"meshes":[
		{
			"name":"Box033_Chrome_0.001",
			"primitives":[
				{
					"attributes":{
						"POSITION":0,
						"NORMAL":1,
						"TEXCOORD_0":2
					},
					"indices":3,
					"material":0
				}
			]
		}
	],
	"accessors":[
		{
			"bufferView":0,
			"componentType":5126,
			"count":1110,
			"max":[
				27.65591812133789,
				20.93517303466797,
				0.5
			],
			"min":[
				-27.655921936035156,
				-20.93517303466797,
				0
			],
			"type":"VEC3"
		},
		{
			"bufferView":1,
			"componentType":5126,
			"count":1110,
			"type":"VEC3"
		},
		{
			"bufferView":2,
			"componentType":5126,
			"count":1110,
			"type":"VEC2"
		},
		{
			"bufferView":3,
			"componentType":5123,
			"count":3144,
			"type":"SCALAR"
		}
	],
	"bufferViews":[
		{
			"buffer":0,
			"byteLength":13320,
			"byteOffset":0,
			"target":34962
		},
		{
			"buffer":0,
			"byteLength":13320,
			"byteOffset":13320,
			"target":34962
		},
		{
			"buffer":0,
			"byteLength":8880,
			"byteOffset":26640,
			"target":34962
		},
		{
			"buffer":0,
			"byteLength":6288,
			"byteOffset":35520,
			"target":34963
		}
	],
	"buffers":[
		{
			"byteLength":41808,
			"uri":"data:application/octet-stream;base64,"
		}
	]
}
